<svg width="140" height="123" fill="none" xmlns="http://www.w3.org/2000/svg"><g opacity=".3" filter="url(#filter0_d)"><mask id="a" maskUnits="userSpaceOnUse" x="4" y="0" width="11" height="11"><path d="M9.228 10.425c2.888 0 5.229-2.334 5.229-5.213C14.457 2.334 12.116 0 9.228 0 6.341 0 4 2.334 4 5.212c0 2.88 2.34 5.213 5.228 5.213z" fill="url(#paint0_linear)"/></mask><g mask="url(#a)"><path d="M9.228 10.425c2.888 0 5.229-2.334 5.229-5.213C14.457 2.334 12.116 0 9.228 0 6.341 0 4 2.334 4 5.212c0 2.88 2.34 5.213 5.228 5.213z" fill="url(#paint1_linear)"/></g><mask id="b" maskUnits="userSpaceOnUse" x="34" y="0" width="11" height="11"><path d="M39.51 10.425c2.887 0 5.228-2.334 5.228-5.213C44.738 2.334 42.397 0 39.51 0c-2.888 0-5.229 2.334-5.229 5.212 0 2.88 2.34 5.213 5.229 5.213z" fill="url(#paint2_linear)"/></mask><g mask="url(#b)"><path d="M39.51 10.425c2.887 0 5.228-2.334 5.228-5.213C44.738 2.334 42.397 0 39.51 0c-2.888 0-5.229 2.334-5.229 5.212 0 2.88 2.34 5.213 5.229 5.213z" fill="url(#paint3_linear)"/></g><mask id="c" maskUnits="userSpaceOnUse" x="64" y="0" width="12" height="11"><path d="M69.79 10.425c2.888 0 5.229-2.334 5.229-5.213C75.019 2.334 72.679 0 69.79 0c-2.887 0-5.228 2.334-5.228 5.212 0 2.88 2.341 5.213 5.228 5.213z" fill="url(#paint4_linear)"/></mask><g mask="url(#c)"><path d="M69.79 10.425c2.888 0 5.229-2.334 5.229-5.213C75.019 2.334 72.679 0 69.79 0c-2.887 0-5.228 2.334-5.228 5.212 0 2.88 2.341 5.213 5.228 5.213z" fill="url(#paint5_linear)"/></g><mask id="d" maskUnits="userSpaceOnUse" x="94" y="0" width="12" height="11"><path d="M100.072 10.425c2.887 0 5.228-2.334 5.228-5.213 0-2.878-2.341-5.212-5.228-5.212-2.888 0-5.229 2.334-5.229 5.212 0 2.88 2.341 5.213 5.229 5.213z" fill="url(#paint6_linear)"/></mask><g mask="url(#d)"><path d="M100.072 10.425c2.887 0 5.228-2.334 5.228-5.213 0-2.878-2.341-5.212-5.228-5.212-2.888 0-5.229 2.334-5.229 5.212 0 2.88 2.341 5.213 5.229 5.213z" fill="url(#paint7_linear)"/></g><mask id="e" maskUnits="userSpaceOnUse" x="125" y="0" width="11" height="11"><path d="M130.353 10.425c2.887 0 5.228-2.334 5.228-5.213 0-2.878-2.341-5.212-5.228-5.212-2.888 0-5.229 2.334-5.229 5.212 0 2.88 2.341 5.213 5.229 5.213z" fill="url(#paint8_linear)"/></mask><g mask="url(#e)"><path d="M130.353 10.425c2.887 0 5.228-2.334 5.228-5.213 0-2.878-2.341-5.212-5.228-5.212-2.888 0-5.229 2.334-5.229 5.212 0 2.88 2.341 5.213 5.229 5.213z" fill="url(#paint9_linear)"/></g><mask id="f" maskUnits="userSpaceOnUse" x="4" y="26" width="11" height="11"><path d="M9.228 36.596c2.888 0 5.229-2.334 5.229-5.213 0-2.878-2.341-5.212-5.229-5.212C6.341 26.171 4 28.505 4 31.383c0 2.88 2.34 5.213 5.228 5.213z" fill="url(#paint10_linear)"/></mask><g mask="url(#f)"><path d="M9.228 36.596c2.888 0 5.229-2.334 5.229-5.213 0-2.878-2.341-5.212-5.229-5.212C6.341 26.171 4 28.505 4 31.383c0 2.88 2.34 5.213 5.228 5.213z" fill="url(#paint11_linear)"/></g><mask id="g" maskUnits="userSpaceOnUse" x="34" y="26" width="11" height="11"><path d="M39.51 36.596c2.887 0 5.228-2.334 5.228-5.213 0-2.878-2.341-5.212-5.228-5.212-2.888 0-5.229 2.334-5.229 5.212 0 2.88 2.34 5.213 5.229 5.213z" fill="url(#paint12_linear)"/></mask><g mask="url(#g)"><path d="M39.51 36.596c2.887 0 5.228-2.334 5.228-5.213 0-2.878-2.341-5.212-5.228-5.212-2.888 0-5.229 2.334-5.229 5.212 0 2.88 2.34 5.213 5.229 5.213z" fill="url(#paint13_linear)"/></g><mask id="h" maskUnits="userSpaceOnUse" x="64" y="26" width="12" height="11"><path d="M69.79 36.596c2.888 0 5.229-2.334 5.229-5.213 0-2.878-2.34-5.212-5.229-5.212-2.887 0-5.228 2.334-5.228 5.212 0 2.88 2.341 5.213 5.228 5.213z" fill="url(#paint14_linear)"/></mask><g mask="url(#h)"><path d="M69.79 36.596c2.888 0 5.229-2.334 5.229-5.213 0-2.878-2.34-5.212-5.229-5.212-2.887 0-5.228 2.334-5.228 5.212 0 2.88 2.341 5.213 5.228 5.213z" fill="url(#paint15_linear)"/></g><mask id="i" maskUnits="userSpaceOnUse" x="94" y="26" width="12" height="11"><path d="M100.072 36.596c2.887 0 5.228-2.334 5.228-5.213 0-2.878-2.341-5.212-5.228-5.212-2.888 0-5.229 2.334-5.229 5.212 0 2.88 2.341 5.213 5.229 5.213z" fill="url(#paint16_linear)"/></mask><g mask="url(#i)"><path d="M100.072 36.596c2.887 0 5.228-2.334 5.228-5.213 0-2.878-2.341-5.212-5.228-5.212-2.888 0-5.229 2.334-5.229 5.212 0 2.88 2.341 5.213 5.229 5.213z" fill="url(#paint17_linear)"/></g><mask id="j" maskUnits="userSpaceOnUse" x="125" y="26" width="11" height="11"><path d="M130.353 36.596c2.887 0 5.228-2.334 5.228-5.213 0-2.878-2.341-5.212-5.228-5.212-2.888 0-5.229 2.334-5.229 5.212 0 2.88 2.341 5.213 5.229 5.213z" fill="url(#paint18_linear)"/></mask><g mask="url(#j)"><path d="M130.353 36.596c2.887 0 5.228-2.334 5.228-5.213 0-2.878-2.341-5.212-5.228-5.212-2.888 0-5.229 2.334-5.229 5.212 0 2.88 2.341 5.213 5.229 5.213z" fill="url(#paint19_linear)"/></g><mask id="k" maskUnits="userSpaceOnUse" x="4" y="52" width="11" height="11"><path d="M9.228 62.712c2.888 0 5.229-2.333 5.229-5.212 0-2.879-2.341-5.212-5.229-5.212C6.341 52.288 4 54.62 4 57.5c0 2.879 2.34 5.212 5.228 5.212z" fill="url(#paint20_linear)"/></mask><g mask="url(#k)"><path d="M9.228 62.712c2.888 0 5.229-2.333 5.229-5.212 0-2.879-2.341-5.212-5.229-5.212C6.341 52.288 4 54.62 4 57.5c0 2.879 2.34 5.212 5.228 5.212z" fill="url(#paint21_linear)"/></g><mask id="l" maskUnits="userSpaceOnUse" x="34" y="52" width="11" height="11"><path d="M39.51 62.712c2.887 0 5.228-2.333 5.228-5.212 0-2.879-2.341-5.212-5.228-5.212-2.888 0-5.229 2.333-5.229 5.212 0 2.879 2.34 5.212 5.229 5.212z" fill="url(#paint22_linear)"/></mask><g mask="url(#l)"><path d="M39.51 62.712c2.887 0 5.228-2.333 5.228-5.212 0-2.879-2.341-5.212-5.228-5.212-2.888 0-5.229 2.333-5.229 5.212 0 2.879 2.34 5.212 5.229 5.212z" fill="url(#paint23_linear)"/></g><mask id="m" maskUnits="userSpaceOnUse" x="64" y="52" width="12" height="11"><path d="M69.79 62.712c2.888 0 5.229-2.333 5.229-5.212 0-2.879-2.34-5.212-5.229-5.212-2.887 0-5.228 2.333-5.228 5.212 0 2.879 2.341 5.212 5.228 5.212z" fill="url(#paint24_linear)"/></mask><g mask="url(#m)"><path d="M69.79 62.712c2.888 0 5.229-2.333 5.229-5.212 0-2.879-2.34-5.212-5.229-5.212-2.887 0-5.228 2.333-5.228 5.212 0 2.879 2.341 5.212 5.228 5.212z" fill="url(#paint25_linear)"/></g><mask id="n" maskUnits="userSpaceOnUse" x="94" y="52" width="12" height="11"><path d="M100.072 62.712c2.887 0 5.228-2.333 5.228-5.212 0-2.879-2.341-5.212-5.228-5.212-2.888 0-5.229 2.333-5.229 5.212 0 2.879 2.341 5.212 5.229 5.212z" fill="url(#paint26_linear)"/></mask><g mask="url(#n)"><path d="M100.072 62.712c2.887 0 5.228-2.333 5.228-5.212 0-2.879-2.341-5.212-5.228-5.212-2.888 0-5.229 2.333-5.229 5.212 0 2.879 2.341 5.212 5.229 5.212z" fill="url(#paint27_linear)"/></g><mask id="o" maskUnits="userSpaceOnUse" x="125" y="52" width="11" height="11"><path d="M130.353 62.712c2.887 0 5.228-2.333 5.228-5.212 0-2.879-2.341-5.212-5.228-5.212-2.888 0-5.229 2.333-5.229 5.212 0 2.879 2.341 5.212 5.229 5.212z" fill="url(#paint28_linear)"/></mask><g mask="url(#o)"><path d="M130.353 62.712c2.887 0 5.228-2.333 5.228-5.212 0-2.879-2.341-5.212-5.228-5.212-2.888 0-5.229 2.333-5.229 5.212 0 2.879 2.341 5.212 5.229 5.212z" fill="url(#paint29_linear)"/></g><mask id="p" maskUnits="userSpaceOnUse" x="4" y="78" width="11" height="11"><path d="M9.228 88.883c2.888 0 5.229-2.333 5.229-5.212 0-2.879-2.341-5.213-5.229-5.213C6.341 78.458 4 80.792 4 83.671s2.34 5.212 5.228 5.212z" fill="url(#paint30_linear)"/></mask><g mask="url(#p)"><path d="M9.228 88.883c2.888 0 5.229-2.333 5.229-5.212 0-2.879-2.341-5.213-5.229-5.213C6.341 78.458 4 80.792 4 83.671s2.34 5.212 5.228 5.212z" fill="url(#paint31_linear)"/></g><mask id="q" maskUnits="userSpaceOnUse" x="34" y="78" width="11" height="11"><path d="M39.51 88.883c2.887 0 5.228-2.333 5.228-5.212 0-2.879-2.341-5.213-5.228-5.213-2.888 0-5.229 2.334-5.229 5.213s2.34 5.212 5.229 5.212z" fill="url(#paint32_linear)"/></mask><g mask="url(#q)"><path d="M39.51 88.883c2.887 0 5.228-2.333 5.228-5.212 0-2.879-2.341-5.213-5.228-5.213-2.888 0-5.229 2.334-5.229 5.213s2.34 5.212 5.229 5.212z" fill="url(#paint33_linear)"/></g><mask id="r" maskUnits="userSpaceOnUse" x="64" y="78" width="12" height="11"><path d="M69.79 88.883c2.888 0 5.229-2.333 5.229-5.212 0-2.879-2.34-5.213-5.229-5.213-2.887 0-5.228 2.334-5.228 5.213s2.341 5.212 5.228 5.212z" fill="url(#paint34_linear)"/></mask><g mask="url(#r)"><path d="M69.79 88.883c2.888 0 5.229-2.333 5.229-5.212 0-2.879-2.34-5.213-5.229-5.213-2.887 0-5.228 2.334-5.228 5.213s2.341 5.212 5.228 5.212z" fill="url(#paint35_linear)"/></g><mask id="s" maskUnits="userSpaceOnUse" x="94" y="78" width="12" height="11"><path d="M100.072 88.883c2.887 0 5.228-2.333 5.228-5.212 0-2.879-2.341-5.213-5.228-5.213-2.888 0-5.229 2.334-5.229 5.213s2.341 5.212 5.229 5.212z" fill="url(#paint36_linear)"/></mask><g mask="url(#s)"><path d="M100.072 88.883c2.887 0 5.228-2.333 5.228-5.212 0-2.879-2.341-5.213-5.228-5.213-2.888 0-5.229 2.334-5.229 5.213s2.341 5.212 5.229 5.212z" fill="url(#paint37_linear)"/></g><mask id="t" maskUnits="userSpaceOnUse" x="125" y="78" width="11" height="11"><path d="M130.353 88.883c2.887 0 5.228-2.333 5.228-5.212 0-2.879-2.341-5.213-5.228-5.213-2.888 0-5.229 2.334-5.229 5.213s2.341 5.212 5.229 5.212z" fill="url(#paint38_linear)"/></mask><g mask="url(#t)"><path d="M130.353 88.883c2.887 0 5.228-2.333 5.228-5.212 0-2.879-2.341-5.213-5.228-5.213-2.888 0-5.229 2.334-5.229 5.213s2.341 5.212 5.229 5.212z" fill="url(#paint39_linear)"/></g><mask id="u" maskUnits="userSpaceOnUse" x="4" y="104" width="11" height="11"><path d="M9.228 115c2.888 0 5.229-2.334 5.229-5.212 0-2.879-2.341-5.213-5.229-5.213-2.887 0-5.228 2.334-5.228 5.213C4 112.666 6.34 115 9.228 115z" fill="url(#paint40_linear)"/></mask><g mask="url(#u)"><path d="M9.228 115c2.888 0 5.229-2.334 5.229-5.212 0-2.879-2.341-5.213-5.229-5.213-2.887 0-5.228 2.334-5.228 5.213C4 112.666 6.34 115 9.228 115z" fill="url(#paint41_linear)"/></g><mask id="v" maskUnits="userSpaceOnUse" x="34" y="104" width="11" height="11"><path d="M39.51 115c2.887 0 5.228-2.334 5.228-5.212 0-2.879-2.341-5.213-5.228-5.213-2.888 0-5.229 2.334-5.229 5.213 0 2.878 2.34 5.212 5.229 5.212z" fill="url(#paint42_linear)"/></mask><g mask="url(#v)"><path d="M39.51 115c2.887 0 5.228-2.334 5.228-5.212 0-2.879-2.341-5.213-5.228-5.213-2.888 0-5.229 2.334-5.229 5.213 0 2.878 2.34 5.212 5.229 5.212z" fill="url(#paint43_linear)"/></g><mask id="w" maskUnits="userSpaceOnUse" x="64" y="104" width="12" height="11"><path d="M69.79 115c2.888 0 5.229-2.334 5.229-5.212 0-2.879-2.34-5.213-5.229-5.213-2.887 0-5.228 2.334-5.228 5.213 0 2.878 2.341 5.212 5.228 5.212z" fill="url(#paint44_linear)"/></mask><g mask="url(#w)"><path d="M69.79 115c2.888 0 5.229-2.334 5.229-5.212 0-2.879-2.34-5.213-5.229-5.213-2.887 0-5.228 2.334-5.228 5.213 0 2.878 2.341 5.212 5.228 5.212z" fill="url(#paint45_linear)"/></g><mask id="x" maskUnits="userSpaceOnUse" x="94" y="104" width="12" height="11"><path d="M100.072 115c2.887 0 5.228-2.334 5.228-5.212 0-2.879-2.341-5.213-5.228-5.213-2.888 0-5.229 2.334-5.229 5.213 0 2.878 2.341 5.212 5.229 5.212z" fill="url(#paint46_linear)"/></mask><g mask="url(#x)"><path d="M100.072 115c2.887 0 5.228-2.334 5.228-5.212 0-2.879-2.341-5.213-5.228-5.213-2.888 0-5.229 2.334-5.229 5.213 0 2.878 2.341 5.212 5.229 5.212z" fill="url(#paint47_linear)"/></g><mask id="y" maskUnits="userSpaceOnUse" x="125" y="104" width="11" height="11"><path d="M130.353 115c2.887 0 5.228-2.334 5.228-5.212 0-2.879-2.341-5.213-5.228-5.213-2.888 0-5.229 2.334-5.229 5.213 0 2.878 2.341 5.212 5.229 5.212z" fill="url(#paint48_linear)"/></mask><g mask="url(#y)"><path d="M130.353 115c2.887 0 5.228-2.334 5.228-5.212 0-2.879-2.341-5.213-5.228-5.213-2.888 0-5.229 2.334-5.229 5.213 0 2.878 2.341 5.212 5.229 5.212z" fill="url(#paint49_linear)"/></g></g><defs><linearGradient id="paint0_linear" x1="58.996" y1="131.134" x2="-12.406" y2="-50.67" gradientUnits="userSpaceOnUse"><stop/><stop offset="1" stop-color="#fff"/></linearGradient><linearGradient id="paint1_linear" x1="58.996" y1="131.134" x2="-12.406" y2="-50.67" gradientUnits="userSpaceOnUse"><stop stop-color="#97C3F9"/><stop offset="1" stop-color="#93C1F9"/></linearGradient><linearGradient id="paint2_linear" x1="85.201" y1="120.843" x2="13.799" y2="-60.961" gradientUnits="userSpaceOnUse"><stop/><stop offset="1" stop-color="#fff"/></linearGradient><linearGradient id="paint3_linear" x1="85.201" y1="120.843" x2="13.799" y2="-60.961" gradientUnits="userSpaceOnUse"><stop stop-color="#97C3F9"/><stop offset="1" stop-color="#93C1F9"/></linearGradient><linearGradient id="paint4_linear" x1="111.405" y1="110.551" x2="40.003" y2="-71.253" gradientUnits="userSpaceOnUse"><stop/><stop offset="1" stop-color="#fff"/></linearGradient><linearGradient id="paint5_linear" x1="111.405" y1="110.551" x2="40.003" y2="-71.253" gradientUnits="userSpaceOnUse"><stop stop-color="#97C3F9"/><stop offset="1" stop-color="#93C1F9"/></linearGradient><linearGradient id="paint6_linear" x1="137.609" y1="100.259" x2="66.207" y2="-81.544" gradientUnits="userSpaceOnUse"><stop/><stop offset="1" stop-color="#fff"/></linearGradient><linearGradient id="paint7_linear" x1="137.609" y1="100.259" x2="66.207" y2="-81.544" gradientUnits="userSpaceOnUse"><stop stop-color="#97C3F9"/><stop offset="1" stop-color="#93C1F9"/></linearGradient><linearGradient id="paint8_linear" x1="163.813" y1="89.968" x2="92.412" y2="-91.836" gradientUnits="userSpaceOnUse"><stop/><stop offset="1" stop-color="#fff"/></linearGradient><linearGradient id="paint9_linear" x1="163.813" y1="89.968" x2="92.412" y2="-91.836" gradientUnits="userSpaceOnUse"><stop stop-color="#97C3F9"/><stop offset="1" stop-color="#93C1F9"/></linearGradient><linearGradient id="paint10_linear" x1="50.054" y1="134.645" x2="-21.347" y2="-47.157" gradientUnits="userSpaceOnUse"><stop/><stop offset="1" stop-color="#fff"/></linearGradient><linearGradient id="paint11_linear" x1="50.054" y1="134.645" x2="-21.347" y2="-47.157" gradientUnits="userSpaceOnUse"><stop stop-color="#97C3F9"/><stop offset="1" stop-color="#93C1F9"/></linearGradient><linearGradient id="paint12_linear" x1="76.258" y1="124.354" x2="4.858" y2="-57.449" gradientUnits="userSpaceOnUse"><stop/><stop offset="1" stop-color="#fff"/></linearGradient><linearGradient id="paint13_linear" x1="76.258" y1="124.354" x2="4.858" y2="-57.449" gradientUnits="userSpaceOnUse"><stop stop-color="#97C3F9"/><stop offset="1" stop-color="#93C1F9"/></linearGradient><linearGradient id="paint14_linear" x1="102.462" y1="114.062" x2="31.062" y2="-67.74" gradientUnits="userSpaceOnUse"><stop/><stop offset="1" stop-color="#fff"/></linearGradient><linearGradient id="paint15_linear" x1="102.462" y1="114.062" x2="31.062" y2="-67.74" gradientUnits="userSpaceOnUse"><stop stop-color="#97C3F9"/><stop offset="1" stop-color="#93C1F9"/></linearGradient><linearGradient id="paint16_linear" x1="128.667" y1="103.771" x2="57.266" y2="-78.032" gradientUnits="userSpaceOnUse"><stop/><stop offset="1" stop-color="#fff"/></linearGradient><linearGradient id="paint17_linear" x1="128.667" y1="103.771" x2="57.266" y2="-78.032" gradientUnits="userSpaceOnUse"><stop stop-color="#97C3F9"/><stop offset="1" stop-color="#93C1F9"/></linearGradient><linearGradient id="paint18_linear" x1="154.871" y1="93.479" x2="83.471" y2="-88.323" gradientUnits="userSpaceOnUse"><stop/><stop offset="1" stop-color="#fff"/></linearGradient><linearGradient id="paint19_linear" x1="154.871" y1="93.479" x2="83.471" y2="-88.323" gradientUnits="userSpaceOnUse"><stop stop-color="#97C3F9"/><stop offset="1" stop-color="#93C1F9"/></linearGradient><linearGradient id="paint20_linear" x1="41.111" y1="138.158" x2="-30.29" y2="-43.646" gradientUnits="userSpaceOnUse"><stop/><stop offset="1" stop-color="#fff"/></linearGradient><linearGradient id="paint21_linear" x1="41.111" y1="138.158" x2="-30.29" y2="-43.646" gradientUnits="userSpaceOnUse"><stop stop-color="#97C3F9"/><stop offset="1" stop-color="#93C1F9"/></linearGradient><linearGradient id="paint22_linear" x1="67.316" y1="127.866" x2="-4.086" y2="-53.937" gradientUnits="userSpaceOnUse"><stop/><stop offset="1" stop-color="#fff"/></linearGradient><linearGradient id="paint23_linear" x1="67.316" y1="127.866" x2="-4.086" y2="-53.937" gradientUnits="userSpaceOnUse"><stop stop-color="#97C3F9"/><stop offset="1" stop-color="#93C1F9"/></linearGradient><linearGradient id="paint24_linear" x1="93.52" y1="117.575" x2="22.119" y2="-64.229" gradientUnits="userSpaceOnUse"><stop/><stop offset="1" stop-color="#fff"/></linearGradient><linearGradient id="paint25_linear" x1="93.52" y1="117.575" x2="22.119" y2="-64.229" gradientUnits="userSpaceOnUse"><stop stop-color="#97C3F9"/><stop offset="1" stop-color="#93C1F9"/></linearGradient><linearGradient id="paint26_linear" x1="119.724" y1="107.283" x2="48.323" y2="-74.52" gradientUnits="userSpaceOnUse"><stop/><stop offset="1" stop-color="#fff"/></linearGradient><linearGradient id="paint27_linear" x1="119.724" y1="107.283" x2="48.323" y2="-74.52" gradientUnits="userSpaceOnUse"><stop stop-color="#97C3F9"/><stop offset="1" stop-color="#93C1F9"/></linearGradient><linearGradient id="paint28_linear" x1="145.929" y1="96.992" x2="74.527" y2="-84.812" gradientUnits="userSpaceOnUse"><stop/><stop offset="1" stop-color="#fff"/></linearGradient><linearGradient id="paint29_linear" x1="145.929" y1="96.992" x2="74.527" y2="-84.812" gradientUnits="userSpaceOnUse"><stop stop-color="#97C3F9"/><stop offset="1" stop-color="#93C1F9"/></linearGradient><linearGradient id="paint30_linear" x1="32.169" y1="141.67" x2="-39.233" y2="-40.134" gradientUnits="userSpaceOnUse"><stop/><stop offset="1" stop-color="#fff"/></linearGradient><linearGradient id="paint31_linear" x1="32.169" y1="141.67" x2="-39.233" y2="-40.134" gradientUnits="userSpaceOnUse"><stop stop-color="#97C3F9"/><stop offset="1" stop-color="#93C1F9"/></linearGradient><linearGradient id="paint32_linear" x1="58.373" y1="131.378" x2="-13.028" y2="-50.425" gradientUnits="userSpaceOnUse"><stop/><stop offset="1" stop-color="#fff"/></linearGradient><linearGradient id="paint33_linear" x1="58.373" y1="131.378" x2="-13.028" y2="-50.425" gradientUnits="userSpaceOnUse"><stop stop-color="#97C3F9"/><stop offset="1" stop-color="#93C1F9"/></linearGradient><linearGradient id="paint34_linear" x1="84.578" y1="121.087" x2="13.176" y2="-60.717" gradientUnits="userSpaceOnUse"><stop/><stop offset="1" stop-color="#fff"/></linearGradient><linearGradient id="paint35_linear" x1="84.578" y1="121.087" x2="13.176" y2="-60.717" gradientUnits="userSpaceOnUse"><stop stop-color="#97C3F9"/><stop offset="1" stop-color="#93C1F9"/></linearGradient><linearGradient id="paint36_linear" x1="110.782" y1="110.795" x2="39.38" y2="-71.008" gradientUnits="userSpaceOnUse"><stop/><stop offset="1" stop-color="#fff"/></linearGradient><linearGradient id="paint37_linear" x1="110.782" y1="110.795" x2="39.38" y2="-71.008" gradientUnits="userSpaceOnUse"><stop stop-color="#97C3F9"/><stop offset="1" stop-color="#93C1F9"/></linearGradient><linearGradient id="paint38_linear" x1="136.986" y1="100.504" x2="65.585" y2="-81.3" gradientUnits="userSpaceOnUse"><stop/><stop offset="1" stop-color="#fff"/></linearGradient><linearGradient id="paint39_linear" x1="136.986" y1="100.504" x2="65.585" y2="-81.3" gradientUnits="userSpaceOnUse"><stop stop-color="#97C3F9"/><stop offset="1" stop-color="#93C1F9"/></linearGradient><linearGradient id="paint40_linear" x1="23.227" y1="145.182" x2="-48.175" y2="-36.622" gradientUnits="userSpaceOnUse"><stop/><stop offset="1" stop-color="#fff"/></linearGradient><linearGradient id="paint41_linear" x1="23.227" y1="145.182" x2="-48.175" y2="-36.622" gradientUnits="userSpaceOnUse"><stop stop-color="#97C3F9"/><stop offset="1" stop-color="#93C1F9"/></linearGradient><linearGradient id="paint42_linear" x1="49.431" y1="134.89" x2="-21.971" y2="-46.913" gradientUnits="userSpaceOnUse"><stop/><stop offset="1" stop-color="#fff"/></linearGradient><linearGradient id="paint43_linear" x1="49.431" y1="134.89" x2="-21.971" y2="-46.913" gradientUnits="userSpaceOnUse"><stop stop-color="#97C3F9"/><stop offset="1" stop-color="#93C1F9"/></linearGradient><linearGradient id="paint44_linear" x1="75.635" y1="124.599" x2="4.234" y2="-57.205" gradientUnits="userSpaceOnUse"><stop/><stop offset="1" stop-color="#fff"/></linearGradient><linearGradient id="paint45_linear" x1="75.635" y1="124.599" x2="4.234" y2="-57.205" gradientUnits="userSpaceOnUse"><stop stop-color="#97C3F9"/><stop offset="1" stop-color="#93C1F9"/></linearGradient><linearGradient id="paint46_linear" x1="101.84" y1="114.307" x2="30.438" y2="-67.496" gradientUnits="userSpaceOnUse"><stop/><stop offset="1" stop-color="#fff"/></linearGradient><linearGradient id="paint47_linear" x1="101.84" y1="114.307" x2="30.438" y2="-67.496" gradientUnits="userSpaceOnUse"><stop stop-color="#97C3F9"/><stop offset="1" stop-color="#93C1F9"/></linearGradient><linearGradient id="paint48_linear" x1="128.044" y1="104.016" x2="56.642" y2="-77.788" gradientUnits="userSpaceOnUse"><stop/><stop offset="1" stop-color="#fff"/></linearGradient><linearGradient id="paint49_linear" x1="128.044" y1="104.016" x2="56.642" y2="-77.788" gradientUnits="userSpaceOnUse"><stop stop-color="#97C3F9"/><stop offset="1" stop-color="#93C1F9"/></linearGradient><filter id="filter0_d" x="0" y="0" width="139.581" height="123" filterUnits="userSpaceOnUse" color-interpolation-filters="sRGB"><feFlood flood-opacity="0" result="BackgroundImageFix"/><feColorMatrix in="SourceAlpha" values="0 0 0 0 0 0 0 0 0 0 0 0 0 0 0 0 0 0 127 0"/><feOffset dy="4"/><feGaussianBlur stdDeviation="2"/><feColorMatrix values="0 0 0 0 0 0 0 0 0 0 0 0 0 0 0 0 0 0 0.25 0"/><feBlend in2="BackgroundImageFix" result="effect1_dropShadow"/><feBlend in="SourceGraphic" in2="effect1_dropShadow" result="shape"/></filter></defs></svg>